<mxfile host="app.diagrams.net" agent="Mozilla/5.0 (Macintosh; Intel Mac OS X 10_15_7) AppleWebKit/605.1.15 (KHTML, like Gecko) Version/18.0 Safari/605.1.15" version="24.8.4">
  <diagram name="Page-1" id="EPnIsJyOsHr0Q__Bav-f">
    <mxGraphModel dx="1158" dy="818" grid="1" gridSize="10" guides="1" tooltips="1" connect="1" arrows="1" fold="1" page="1" pageScale="1" pageWidth="827" pageHeight="1169" math="0" shadow="0">
      <root>
        <mxCell id="0" />
        <mxCell id="1" parent="0" />
        <mxCell id="J0-6m3_QR1NcQgKGNy9c-20" value="" style="edgeStyle=orthogonalEdgeStyle;rounded=0;orthogonalLoop=1;jettySize=auto;html=1;" edge="1" parent="1" source="J0-6m3_QR1NcQgKGNy9c-17" target="J0-6m3_QR1NcQgKGNy9c-19">
          <mxGeometry relative="1" as="geometry" />
        </mxCell>
        <mxCell id="J0-6m3_QR1NcQgKGNy9c-17" value="" style="rounded=0;whiteSpace=wrap;html=1;" vertex="1" parent="1">
          <mxGeometry x="470" y="100" width="310" height="250" as="geometry" />
        </mxCell>
        <mxCell id="J0-6m3_QR1NcQgKGNy9c-11" style="edgeStyle=orthogonalEdgeStyle;rounded=0;orthogonalLoop=1;jettySize=auto;html=1;entryX=0;entryY=0.5;entryDx=0;entryDy=0;" edge="1" parent="1" source="J0-6m3_QR1NcQgKGNy9c-2" target="J0-6m3_QR1NcQgKGNy9c-10">
          <mxGeometry relative="1" as="geometry" />
        </mxCell>
        <mxCell id="J0-6m3_QR1NcQgKGNy9c-2" value="" style="shape=image;verticalLabelPosition=bottom;labelBackgroundColor=default;verticalAlign=top;aspect=fixed;imageAspect=0;image=https://dlthub.com/docs/img/dlthub-logo.png;" vertex="1" parent="1">
          <mxGeometry x="180" y="213.45" width="142.94" height="42" as="geometry" />
        </mxCell>
        <mxCell id="J0-6m3_QR1NcQgKGNy9c-8" value="" style="edgeStyle=orthogonalEdgeStyle;rounded=0;orthogonalLoop=1;jettySize=auto;html=1;" edge="1" parent="1" source="J0-6m3_QR1NcQgKGNy9c-6" target="J0-6m3_QR1NcQgKGNy9c-2">
          <mxGeometry relative="1" as="geometry" />
        </mxCell>
        <mxCell id="J0-6m3_QR1NcQgKGNy9c-6" value="" style="shape=image;verticalLabelPosition=bottom;labelBackgroundColor=default;verticalAlign=top;aspect=fixed;imageAspect=0;image=https://cdn.freebiesupply.com/images/large/2x/nba-logo-transparent.png;" vertex="1" parent="1">
          <mxGeometry x="70" y="190" width="40" height="88.89" as="geometry" />
        </mxCell>
        <mxCell id="J0-6m3_QR1NcQgKGNy9c-7" value="Source: NBA API" style="text;html=1;align=center;verticalAlign=middle;resizable=0;points=[];autosize=1;strokeColor=none;fillColor=none;" vertex="1" parent="1">
          <mxGeometry x="35" y="288" width="110" height="30" as="geometry" />
        </mxCell>
        <mxCell id="J0-6m3_QR1NcQgKGNy9c-9" value="Data Ingestion" style="text;html=1;align=center;verticalAlign=middle;resizable=0;points=[];autosize=1;strokeColor=none;fillColor=none;" vertex="1" parent="1">
          <mxGeometry x="190" y="288" width="100" height="30" as="geometry" />
        </mxCell>
        <mxCell id="J0-6m3_QR1NcQgKGNy9c-13" value="" style="edgeStyle=orthogonalEdgeStyle;rounded=0;orthogonalLoop=1;jettySize=auto;html=1;" edge="1" parent="1" source="J0-6m3_QR1NcQgKGNy9c-10" target="J0-6m3_QR1NcQgKGNy9c-12">
          <mxGeometry relative="1" as="geometry">
            <Array as="points">
              <mxPoint x="630" y="250" />
              <mxPoint x="630" y="250" />
            </Array>
          </mxGeometry>
        </mxCell>
        <mxCell id="J0-6m3_QR1NcQgKGNy9c-10" value="" style="shape=image;verticalLabelPosition=bottom;labelBackgroundColor=default;verticalAlign=top;aspect=fixed;imageAspect=0;image=https://seeklogo.com/images/G/google-big-query-logo-AC63E7C329-seeklogo.com.png;" vertex="1" parent="1">
          <mxGeometry x="520" y="140" width="190" height="65.23" as="geometry" />
        </mxCell>
        <mxCell id="J0-6m3_QR1NcQgKGNy9c-14" value="" style="edgeStyle=orthogonalEdgeStyle;rounded=0;orthogonalLoop=1;jettySize=auto;html=1;" edge="1" parent="1" source="J0-6m3_QR1NcQgKGNy9c-12" target="J0-6m3_QR1NcQgKGNy9c-10">
          <mxGeometry relative="1" as="geometry">
            <Array as="points">
              <mxPoint x="570" y="250" />
              <mxPoint x="570" y="250" />
            </Array>
          </mxGeometry>
        </mxCell>
        <mxCell id="J0-6m3_QR1NcQgKGNy9c-12" value="" style="shape=image;verticalLabelPosition=bottom;labelBackgroundColor=default;verticalAlign=top;aspect=fixed;imageAspect=0;image=https://mydata.ch/wp-content/uploads/image-3.png;" vertex="1" parent="1">
          <mxGeometry x="530" y="279.66" width="140" height="46.67" as="geometry" />
        </mxCell>
        <mxCell id="J0-6m3_QR1NcQgKGNy9c-15" value="Data Loading" style="text;html=1;align=center;verticalAlign=middle;resizable=0;points=[];autosize=1;strokeColor=none;fillColor=none;" vertex="1" parent="1">
          <mxGeometry x="322.94" y="240" width="90" height="30" as="geometry" />
        </mxCell>
        <mxCell id="J0-6m3_QR1NcQgKGNy9c-16" value="Data Transformation&lt;span style=&quot;white-space: pre;&quot;&gt;&#x9;&lt;/span&gt;" style="text;html=1;align=center;verticalAlign=middle;resizable=0;points=[];autosize=1;strokeColor=none;fillColor=none;" vertex="1" parent="1">
          <mxGeometry x="640" y="225.45" width="160" height="30" as="geometry" />
        </mxCell>
        <mxCell id="J0-6m3_QR1NcQgKGNy9c-18" value="&lt;b&gt;Data Warehouse&lt;/b&gt;" style="text;html=1;align=center;verticalAlign=middle;resizable=0;points=[];autosize=1;strokeColor=none;fillColor=none;" vertex="1" parent="1">
          <mxGeometry x="555" y="60" width="120" height="30" as="geometry" />
        </mxCell>
        <mxCell id="J0-6m3_QR1NcQgKGNy9c-19" value="Data Analysis&lt;div style=&quot;font-size: 16px;&quot;&gt;Data Visualisation&lt;/div&gt;" style="text;html=1;align=center;verticalAlign=middle;resizable=0;points=[];autosize=1;strokeColor=none;fillColor=none;fontSize=16;" vertex="1" parent="1">
          <mxGeometry x="550" y="448" width="150" height="50" as="geometry" />
        </mxCell>
      </root>
    </mxGraphModel>
  </diagram>
</mxfile>
